<svg width="23" height="21" viewBox="0 0 23 21" fill="none" xmlns="http://www.w3.org/2000/svg">
<path d="M7.81828 16.9105C7.81828 16.9973 7.73156 17.0406 7.60148 17.0406C7.4714 17.084 7.38468 16.9973 7.38468 16.9105C7.38468 16.8238 7.4714 16.7371 7.60148 16.7371C7.73156 16.7371 7.81828 16.8238 7.81828 16.9105ZM6.47411 16.6937C6.51747 16.607 6.64755 16.5637 6.77763 16.607C6.90771 16.6504 6.95107 16.7371 6.95107 16.8238C6.90771 16.9105 6.77763 16.9539 6.69091 16.9105C6.56083 16.9105 6.47411 16.7805 6.47411 16.6937ZM8.42532 16.6504C8.51204 16.607 8.64213 16.6937 8.64213 16.7805C8.68549 16.8672 8.59877 16.9105 8.46868 16.9539C8.3386 16.9973 8.20852 16.9539 8.20852 16.8672C8.20852 16.7371 8.29524 16.6504 8.42532 16.6504ZM11.2437 0C17.2708 0 22.1706 4.5962 22.1706 10.5799C22.1706 15.3929 19.2221 19.5122 14.886 20.9431C14.3223 21.0731 14.1055 20.7263 14.1055 20.4227C14.1055 20.0758 14.1489 18.2547 14.1489 16.8238C14.1489 15.7832 13.802 15.1328 13.4118 14.7859C15.8399 14.5257 18.3982 14.1788 18.3982 10.0162C18.3982 8.80215 17.9646 8.23847 17.2708 7.45798C17.3576 7.15446 17.7478 6.02709 17.1408 4.50948C16.2302 4.20596 14.1489 5.68021 14.1489 5.68021C13.2817 5.42005 12.3711 5.33333 11.4172 5.33333C10.5066 5.33333 9.59605 5.42005 8.72885 5.68021C8.72885 5.68021 6.60419 4.24932 5.73698 4.50948C5.12994 6.02709 5.47682 7.15446 5.6069 7.45798C4.91313 8.23847 4.56625 8.80215 4.56625 10.0162C4.56625 14.1788 7.03779 14.5257 9.46597 14.7859C9.11909 15.0894 8.85893 15.5664 8.77221 16.2601C8.1218 16.5637 6.56083 17.0406 5.6069 15.3496C4.99986 14.3089 3.91585 14.2222 3.91585 14.2222C2.8752 14.2222 3.87249 14.916 3.87249 14.916C4.56625 15.2195 5.04322 16.4769 5.04322 16.4769C5.69362 18.4282 8.72885 17.7778 8.72885 17.7778C8.72885 18.6883 8.72885 20.1626 8.72885 20.4661C8.72885 20.7263 8.55541 21.0731 7.99172 20.9864C3.65568 19.5122 0.663818 15.3929 0.663818 10.5799C0.663818 4.5962 5.26002 0 11.2437 0ZM4.86977 14.9593C4.91313 14.916 4.99986 14.9593 5.08658 15.0027C5.1733 15.0894 5.1733 15.2195 5.12994 15.2628C5.04322 15.3062 4.95649 15.2628 4.86977 15.2195C4.82641 15.1328 4.78305 15.0027 4.86977 14.9593ZM4.39281 14.6124C4.43617 14.5691 4.47953 14.5691 4.56625 14.6124C4.65297 14.6558 4.69633 14.6992 4.69633 14.7425C4.65297 14.8292 4.56625 14.8292 4.47953 14.7859C4.39281 14.7425 4.34945 14.6992 4.39281 14.6124ZM5.78034 16.1734C5.86706 16.0867 5.99714 16.1301 6.08386 16.2168C6.17059 16.3035 6.17059 16.4336 6.12722 16.4769C6.08386 16.5637 5.95378 16.5203 5.86706 16.4336C5.73698 16.3469 5.73698 16.2168 5.78034 16.1734ZM5.30338 15.523C5.3901 15.4797 5.47682 15.523 5.56354 15.6097C5.6069 15.6965 5.6069 15.8265 5.56354 15.8699C5.47682 15.9133 5.3901 15.8699 5.30338 15.7832C5.21666 15.6965 5.21666 15.5664 5.30338 15.523Z" fill="#1C1A19"/>
</svg>
