<svg width="21" height="21" viewBox="0 0 21 21" fill="none" xmlns="http://www.w3.org/2000/svg">
<path d="M4.78531 20.0156H0.624234V6.63755H4.78531V20.0156ZM2.6824 4.84784C1.38486 4.84784 0.311035 3.72927 0.311035 2.38699C0.311035 1.08945 1.38486 0.015625 2.6824 0.015625C4.02468 0.015625 5.09851 1.08945 5.09851 2.38699C5.09851 3.72927 4.02468 4.84784 2.6824 4.84784ZM16.1947 20.0156V13.5279C16.1947 11.9619 16.15 9.99325 14.0023 9.99325C11.8547 9.99325 11.5415 11.6487 11.5415 13.3937V20.0156H7.38039V6.63755H11.3625V8.472H11.4072C11.9889 7.44292 13.3312 6.32435 15.3446 6.32435C19.5504 6.32435 20.3558 9.0984 20.3558 12.6778V20.0156H16.1947Z" fill="#1C1A19"/>
</svg>
